Coordinates
version=1
nRows=14
nColumns=24
inDegrees=yes

Units are S.I. units (second, meters, Newtons, ...)
Angles are in degrees.

endheader
time	pelvis_tilt	pelvis_list	pelvis_rotation	pelvis_tx	pelvis_ty	pelvis_tz	hip_flexion_r	hip_adduction_r	hip_rotation_r	knee_angle_r	ankle_angle_r	subtalar_angle_r	mtp_angle_r	hip_flexion_l	hip_adduction_l	hip_rotation_l	knee_angle_l	ankle_angle_l	subtalar_angle_l	mtp_angle_l	lumbar_extension	lumbar_bending	lumbar_rotation
      3.81500000	     18.33640937	     -1.14813172	     -3.09612839	     -0.12412166	      0.95925046	      0.02250142	      1.34715263	     -3.47546831	     -5.58071842	    -14.29038852	     18.63137529	      4.84982743	     26.61506339	    -29.93059331	      2.43575676	     -6.76667965	      3.11508747	     13.14615333	     15.40400090	      5.06876642	    -28.85486591	     -0.38523501	     -0.56146267
      3.82000000	     18.41303064	     -1.02700577	     -3.02746558	     -0.11966023	      0.95872400	      0.02303252	      1.04016482	     -3.46416322	     -5.32215061	    -12.15106852	     17.83249547	      4.60916871	     30.41514859	    -30.26946972	      2.49458939	     -6.87509989	      3.03063667	     13.41905020	     15.77814884	      4.59178022	    -28.92333963	     -0.48219729	     -0.65584607
      3.82500000	     18.49384527	     -0.87309724	     -2.90452997	     -0.11513919	      0.95816237	      0.02341341	      0.74217634	     -3.51547205	     -5.24553874	    -10.17571759	     17.39380018	      4.85148248	     30.44031993	    -30.61911581	      2.56205560	     -6.84724760	      2.96592959	     13.61922023	     16.00503680	      4.60909764	    -28.98992881	     -0.57489067	     -0.80286783
      3.83000000	     18.58530620	     -0.71992129	     -2.82032662	     -0.11054514	      0.95757297	      0.02391331	      0.42670165	     -3.55947863	     -5.08849071	     -8.26801098	     16.95566854	      5.00141790	     30.58069734	    -31.00638214	      2.64455503	     -6.91429681	      2.94377935	     13.80453664	     16.34136344	      4.62672538	    -29.05774228	     -0.68884060	     -0.94353175
      3.83500000	     18.60715808	     -0.53727891	     -2.75858825	     -0.10599019	      0.95688373	      0.02446800	      0.20593455	     -3.62841238	     -4.87554794	     -6.44990849	     16.26197609	      4.83833848	     32.58802047	    -31.27591651	      2.75486627	     -7.04034735	      2.83919801	     14.01745959	     16.80755831	      4.49847988	    -29.05252235	     -0.83752482	     -1.04808574
      3.84000000	     18.71973205	     -0.33458465	     -2.68057557	     -0.10138092	      0.95626913	      0.02491222	     -0.08115362	     -3.74735064	     -4.85087741	     -4.83165456	     15.89985246	      5.16390039	     32.68784815	    -31.67480713	      2.89078955	     -7.04004293	      2.79438815	     14.19277013	     16.99528032	      4.52147287	    -29.13929827	     -0.99115944	     -1.16660054
      3.84500000	     18.79087588	     -0.12543311	     -2.60154362	     -0.09675950	      0.95561284	      0.02538440	     -0.30356145	     -3.86659687	     -4.83862697	     -3.35140411	     15.49250540	      5.37601998	     32.83639081	    -32.00876023	      3.02352346	     -7.08703898	      2.70748604	     14.36711301	     17.30768603	      4.55941245	    -29.17970041	     -1.14666311	     -1.29180840
      3.85000000	     18.83555107	      0.09045544	     -2.58467362	     -0.09215475	      0.95489382	      0.02600850	     -0.46137008	     -3.98497738	     -4.71402022	     -2.01274654	     15.01830262	      5.33742637	     34.22978914	    -32.29207265	      3.18425018	     -7.27332077	      2.56910494	     14.59617337	     17.81245926	      4.66704321	    -29.19140392	     -1.33959150	     -1.35528472
      3.85500000	     18.91951082	      0.28860219	     -2.49359030	     -0.08747152	      0.95426291	      0.02644514	     -0.64981696	     -4.09543101	     -4.84646594	     -0.85666515	     14.68196152	      5.64368372	     34.35719780	    -32.66117324	      3.30012966	     -7.24554261	      2.52164804	     14.69153197	     17.95375952	      4.69957031	    -29.24040133	     -1.46739224	     -1.47771806
      3.86000000	     18.99613428	      0.48510137	     -2.43046088	     -0.08277455	      0.95362650	      0.02697559	     -0.79889163	     -4.19718606	     -4.95258389	      0.13137120	     14.40675878	      5.88441629	     34.55157759	    -33.00047187	      3.41977346	     -7.32396390	      2.41961970	     14.84163110	     18.27943970	      4.76704421	    -29.27874544	     -1.60820314	     -1.57098800
      3.86500000	     19.05017580	      0.71370850	     -2.39325457	     -0.07816256	      0.95296520	      0.02752986	     -0.86566785	     -4.33360597	     -5.05426916	      0.91255759	     14.15662478	      6.10638358	     34.66390557	    -33.29258779	      3.58005196	     -7.37010383	      2.28412676	     14.98663459	     18.51282253	      4.82080565	    -29.30070793	     -1.78885380	     -1.65254229
      3.87000000	     19.17241071	      0.85942639	     -2.30742728	     -0.07339262	      0.95242882	      0.02808741	     -1.04169933	     -4.37034353	     -5.24419409	      1.60258987	     13.99730499	      6.32748801	     34.87868496	    -33.67093431	      3.62962601	     -7.48717496	      2.14338051	     15.12115274	     18.91535991	      4.91637936	    -29.38337169	     -1.86527644	     -1.71491809
      3.87500000	     19.26293386	      1.02576703	     -2.25000315	     -0.06866935	      0.95186940	      0.02868731	     -1.13130725	     -4.42922144	     -5.41474968	      2.09111632	     13.86774245	      6.55457091	     35.09883430	    -34.00363251	      3.70927419	     -7.58923992	      1.98762343	     15.26177443	     19.25269486	      5.02250428	    -29.43626953	     -1.97196295	     -1.78391006
      3.88000000	     19.37001127	      1.16279699	     -2.19114376	     -0.06388811	      0.95134242	      0.02928868	     -1.23297475	     -4.45588774	     -5.58547058	      2.44284631	     13.79768312	      6.80106086	     35.33860382	    -34.36148077	      3.75872898	     -7.70314910	      1.83690182	     15.39160807	     19.59408668	      5.15305182	    -29.50070840	     -2.04184367	     -1.83763813
